<svg xmlns="http://www.w3.org/2000/svg" viewBox="0 0 800 450" fill="none">
  <defs>
    <radialGradient id="a_bg" cx="50%" cy="50%" r="70%">
      <stop offset="0%" stop-color="#0d2137"/><stop offset="100%" stop-color="#030912"/>
    </radialGradient>
    <linearGradient id="a_bar" x1="0" y1="0" x2="0" y2="1">
      <stop offset="0%" stop-color="#c9a227" stop-opacity=".92"/><stop offset="100%" stop-color="#c9a227" stop-opacity=".18"/>
    </linearGradient>
    <linearGradient id="a_bar2" x1="0" y1="0" x2="0" y2="1">
      <stop offset="0%" stop-color="#00a8e8" stop-opacity=".72"/><stop offset="100%" stop-color="#00a8e8" stop-opacity=".12"/>
    </linearGradient>
  </defs>
  <rect width="800" height="450" fill="url(#a_bg)"/>
  <!-- Subtle grid -->
  <line x1="118" y1="330" x2="690" y2="330" stroke="rgba(255,255,255,.06)" stroke-width="1"/>
  <line x1="118" y1="272" x2="690" y2="272" stroke="rgba(255,255,255,.06)" stroke-width="1"/>
  <line x1="118" y1="214" x2="690" y2="214" stroke="rgba(255,255,255,.06)" stroke-width="1"/>
  <line x1="118" y1="156" x2="690" y2="156" stroke="rgba(255,255,255,.06)" stroke-width="1"/>
  <line x1="118" y1="98"  x2="690" y2="98"  stroke="rgba(255,255,255,.04)" stroke-width="1"/>
  <!-- Axes -->
  <line x1="118" y1="330" x2="118" y2="72" stroke="rgba(255,255,255,.12)" stroke-width="1.5"/>
  <line x1="118" y1="330" x2="710" y2="330" stroke="rgba(255,255,255,.12)" stroke-width="1.5"/>
  <!-- Y-axis tick labels (blocks) -->
  <rect x="66" y="265" width="40" height="12" rx="6" fill="rgba(201,162,39,.28)"/>
  <rect x="66" y="207" width="40" height="12" rx="6" fill="rgba(201,162,39,.28)"/>
  <rect x="66" y="149" width="40" height="12" rx="6" fill="rgba(201,162,39,.28)"/>
  <rect x="66" y="91"  width="40" height="12" rx="6" fill="rgba(201,162,39,.28)"/>
  <!-- Gold bars -->
  <rect x="145" y="196" width="42" height="134" rx="5 5 0 0" fill="url(#a_bar)"/>
  <rect x="218" y="168" width="42" height="162" rx="5 5 0 0" fill="url(#a_bar)"/>
  <rect x="291" y="148" width="42" height="182" rx="5 5 0 0" fill="url(#a_bar)"/>
  <rect x="364" y="134" width="42" height="196" rx="5 5 0 0" fill="url(#a_bar)"/>
  <rect x="437" y="152" width="42" height="178" rx="5 5 0 0" fill="url(#a_bar)"/>
  <rect x="510" y="118" width="42" height="212" rx="5 5 0 0" fill="url(#a_bar)"/>
  <rect x="583" y="106" width="42" height="224" rx="5 5 0 0" fill="url(#a_bar)"/>
  <!-- Blue bars (overlaid smaller) -->
  <rect x="191" y="248" width="24" height="82" rx="4 4 0 0" fill="url(#a_bar2)"/>
  <rect x="264" y="234" width="24" height="96" rx="4 4 0 0" fill="url(#a_bar2)"/>
  <rect x="337" y="218" width="24" height="112" rx="4 4 0 0" fill="url(#a_bar2)"/>
  <rect x="410" y="238" width="24" height="92"  rx="4 4 0 0" fill="url(#a_bar2)"/>
  <rect x="483" y="208" width="24" height="122" rx="4 4 0 0" fill="url(#a_bar2)"/>
  <rect x="556" y="194" width="24" height="136" rx="4 4 0 0" fill="url(#a_bar2)"/>
  <rect x="629" y="174" width="24" height="156" rx="4 4 0 0" fill="url(#a_bar2)"/>
  <!-- Trend line (green) -->
  <polyline points="166,190 239,162 312,138 385,126 458,144 531,108 604,97"
            stroke="rgba(46,204,113,.88)" stroke-width="2.8" stroke-linecap="round" stroke-linejoin="round"/>
  <circle cx="166" cy="190" r="5" fill="rgba(46,204,113,.9)" stroke="rgba(46,204,113,.3)" stroke-width="3"/>
  <circle cx="312" cy="138" r="5" fill="rgba(46,204,113,.9)" stroke="rgba(46,204,113,.3)" stroke-width="3"/>
  <circle cx="531" cy="108" r="5" fill="rgba(46,204,113,.9)" stroke="rgba(46,204,113,.3)" stroke-width="3"/>
  <circle cx="604" cy="97"  r="7" fill="rgba(201,162,39,.95)" stroke="rgba(201,162,39,.3)" stroke-width="4"/>
  <!-- Rate badge top right -->
  <rect x="588" y="55" width="98" height="34" rx="17" fill="rgba(201,162,39,.14)" stroke="rgba(201,162,39,.42)" stroke-width="1.5"/>
  <rect x="602" y="66" width="52" height="12" rx="6" fill="rgba(201,162,39,.62)"/>
  <rect x="660" y="68" width="18" height="8"  rx="4" fill="rgba(46,204,113,.5)"/>
  <!-- ₹ symbol (circle) -->
  <circle cx="680" cy="110" r="24" fill="rgba(201,162,39,.1)" stroke="rgba(201,162,39,.3)" stroke-width="1.5"/>
  <rect x="671" y="101" width="18" height="4" rx="2" fill="rgba(201,162,39,.7)"/>
  <rect x="671" y="109" width="16" height="4" rx="2" fill="rgba(201,162,39,.5)"/>
  <rect x="674" y="105" width="4" height="18" rx="2" fill="rgba(201,162,39,.7)"/>
  <!-- Legend row -->
  <rect x="148" y="374" width="16" height="16" rx="4" fill="rgba(201,162,39,.82)"/>
  <rect x="170" y="379" width="62" height="6" rx="3" fill="rgba(255,255,255,.2)"/>
  <rect x="262" y="374" width="16" height="16" rx="4" fill="rgba(0,168,232,.72)"/>
  <rect x="284" y="379" width="52" height="6" rx="3" fill="rgba(255,255,255,.2)"/>
  <rect x="368" y="374" width="16" height="16" rx="4" fill="rgba(46,204,113,.82)"/>
  <rect x="390" y="379" width="56" height="6" rx="3" fill="rgba(255,255,255,.2)"/>
  <!-- Floating particles -->
  <circle cx="92"  cy="170" r="4" fill="rgba(0,168,232,.28)"/>
  <circle cx="92"  cy="170" r="10" fill="none" stroke="rgba(0,168,232,.13)" stroke-width="1"/>
  <circle cx="720" cy="240" r="3.5" fill="rgba(201,162,39,.22)"/>
  <circle cx="55"  cy="300" r="2.5" fill="rgba(201,162,39,.18)"/>
  <circle cx="745" cy="360" r="2"   fill="rgba(255,255,255,.14)"/>
</svg>
